<?xml version="1.0" encoding="iso-8859-1"?>
<!-- Generator: Adobe Illustrator 21.0.0, SVG Export Plug-In . SVG Version: 6.00 Build 0)  -->
<svg version="1.1" id="Capa_1" xmlns="http://www.w3.org/2000/svg" xmlns:xlink="http://www.w3.org/1999/xlink" x="0px" y="0px"
	 viewBox="0 0 252.2 100.15" style="enable-background:new 0 0 252.2 100.15;" xml:space="preserve">
<g>
	<path style="fill:#5F6368;" d="M119.27,48.93v29.36h-9.31V5.79h24.7c5.96-0.12,11.71,2.13,15.99,6.28c4.33,3.9,6.77,9.47,6.68,15.3
		c0.13,5.86-2.32,11.48-6.68,15.39c-4.32,4.12-9.65,6.18-15.99,6.17L119.27,48.93L119.27,48.93L119.27,48.93z M119.27,14.71v25.31
		h15.62c3.46,0.1,6.81-1.26,9.22-3.75c2.39-2.33,3.74-5.52,3.74-8.86c0-3.34-1.35-6.53-3.74-8.86c-2.38-2.54-5.73-3.94-9.22-3.85
		L119.27,14.71L119.27,14.71L119.27,14.71z M178.79,27.06c6.88,0,12.32,1.84,16.3,5.52c3.98,3.68,5.97,8.72,5.97,15.13v30.57h-8.91
		V71.4h-0.4c-3.86,5.67-8.98,8.5-15.39,8.5c-5.46,0-10.04-1.62-13.72-4.86c-3.58-3.01-5.6-7.47-5.52-12.15
		c0-5.13,1.94-9.21,5.82-12.24c3.88-3.03,9.06-4.55,15.54-4.56c5.53,0,10.08,1.01,13.66,3.04V47c0.02-3.19-1.39-6.21-3.85-8.24
		c-2.46-2.22-5.67-3.43-8.99-3.4c-5.2,0-9.32,2.19-12.35,6.58l-8.2-5.17C163.27,30.3,169.95,27.06,178.79,27.06L178.79,27.06z
		 M166.75,63.1c-0.01,2.4,1.14,4.67,3.09,6.07c2.06,1.62,4.62,2.48,7.24,2.43c3.93-0.01,7.7-1.57,10.48-4.35
		c3.09-2.9,4.63-6.31,4.63-10.22c-2.9-2.31-6.95-3.47-12.15-3.47c-3.78,0-6.94,0.91-9.46,2.74C168.01,58.15,166.75,60.4,166.75,63.1
		L166.75,63.1z M252.2,28.68l-31.1,71.47h-9.61l11.54-25l-20.45-46.46h10.12l14.78,35.63h0.2l14.38-35.63H252.2L252.2,28.68z"/>
	<path style="fill:#4285F4;" d="M81.64,42.6c0-2.84-0.24-5.67-0.72-8.47H41.65v16.04h22.5c-0.93,5.18-3.93,9.75-8.32,12.66v0.01
		l13.42,10.41h0.01C77.11,65.99,81.64,55.27,81.64,42.6L81.64,42.6z"/>
	<path style="fill:#34A853;" d="M41.65,83.3c11.24,0,20.7-3.69,27.6-10.05L55.82,62.83c-3.74,2.53-8.55,3.98-14.18,3.98
		c-10.86,0-20.08-7.32-23.38-17.19L4.43,60.35C11.5,74.42,25.9,83.3,41.65,83.3L41.65,83.3z"/>
	<path style="fill:#FBBC04;" d="M18.27,49.62c-1.74-5.17-1.74-10.77,0-15.94L4.43,22.95c-5.91,11.77-5.91,25.64,0,37.4L18.27,49.62
		L18.27,49.62z"/>
	<path style="fill:#EA4335;" d="M41.65,16.49c5.94-0.1,11.68,2.15,15.98,6.25l11.89-11.89C61.97,3.77,51.99-0.12,41.65,0
		C25.9,0,11.5,8.88,4.43,22.95l13.83,10.73C21.56,23.81,30.78,16.49,41.65,16.49L41.65,16.49z"/>
</g>
</svg>
